Coordinates
version=1
nRows=13
nColumns=38
inDegrees=no

Units are S.I. units (second, meters, Newtons, ...)
If the header above contains a line with 'inDegrees', this indicates whether rotational values are in degrees (yes) or radians (no).

endheader
time	pelvis_tilt	pelvis_list	pelvis_rotation	pelvis_tx	pelvis_ty	pelvis_tz	hip_flexion_r	hip_adduction_r	hip_rotation_r	knee_angle_r	ankle_angle_r	subtalar_angle_r	mtp_angle_r	hip_flexion_l	hip_adduction_l	hip_rotation_l	knee_angle_l	ankle_angle_l	subtalar_angle_l	mtp_angle_l	lumbar_extension	lumbar_bending	lumbar_rotation	arm_flex_r	arm_add_r	arm_rot_r	elbow_flex_r	pro_sup_r	wrist_flex_r	wrist_dev_r	arm_flex_l	arm_add_l	arm_rot_l	elbow_flex_l	pro_sup_l	wrist_flex_l	wrist_dev_l
0.99	3.12008	1.43933	-1.45605	0.643326	0.497438	0.912721	0.289442	-0.0698506	-0.215109	0.100748	0.103471	0	0	-0.43039	-0.00977364	-0.0835336	0.105487	0.294656	0	0	-0.31415	-0.0920898	-0.238306	-0.134514	-0.216086	0.10449	0.542671	0.992262	0	0	0.0695985	-0.47848	0.189581	0.730666	1.21208	0	0
1	3.12636	1.43794	-1.45604	0.643752	0.509114	0.911391	0.286154	-0.0713722	-0.22815	0.124803	0.102673	0	0	-0.435821	-0.0155569	-0.089333	0.124695	0.302563	0	0	-0.313896	-0.0868757	-0.246922	-0.134564	-0.217849	0.104612	0.543887	0.994735	0	0	0.0669116	-0.474971	0.186657	0.730944	1.20969	0	0
1.01	3.12998	1.43634	-1.45289	0.644191	0.520991	0.910235	0.280812	-0.0721235	-0.239993	0.145427	0.102465	0	0	-0.439503	-0.0225974	-0.0959825	0.147807	0.30993	0	0	-0.31341	-0.081011	-0.256144	-0.134561	-0.219902	0.106117	0.54469	0.996619	0	0	0.0632819	-0.471421	0.183993	0.730764	1.20942	0	0
1.02	3.12812	1.43433	-1.44451	0.644765	0.532965	0.909348	0.27349	-0.0710909	-0.248872	0.158204	0.0928291	0	0	-0.441343	-0.0311501	-0.104059	0.17507	0.316065	0	0	-0.313167	-0.0742888	-0.2647	-0.134602	-0.221859	0.107464	0.545731	0.997615	0	0	0.0596526	-0.467532	0.181462	0.729693	1.21176	0	0
1.03	3.11705	1.43193	-1.42792	0.645604	0.544927	0.908812	0.264953	-0.0676063	-0.253978	0.163358	0.0687806	0	0	-0.440697	-0.0416763	-0.114652	0.207352	0.320549	0	0	-0.313448	-0.0663769	-0.271499	-0.134331	-0.223586	0.108605	0.546644	0.997108	0	0	0.0567248	-0.463193	0.179104	0.727292	1.217	0	0
1.04	3.09389	1.42939	-1.40089	0.646799	0.556837	0.908619	0.256519	-0.0616946	-0.25689	0.167474	0.0397466	0	0	-0.436826	-0.0546548	-0.128631	0.245363	0.322671	0	0	-0.314002	-0.0570773	-0.275758	-0.13362	-0.225388	0.10986	0.547137	0.996502	0	0	0.0547261	-0.458535	0.177306	0.723274	1.22489	0	0
1.05	3.05988	1.42673	-1.36465	0.648282	0.568665	0.908762	0.250193	-0.0545357	-0.260805	0.1788	0.0218047	0	0	-0.429247	-0.0700705	-0.144981	0.289738	0.321007	0	0	-0.314714	-0.0463406	-0.277578	-0.132342	-0.227293	0.11198	0.547303	0.996629	0	0	0.0533701	-0.453311	0.175725	0.718149	1.23589	0	0
1.06	3.02018	1.42382	-1.32429	0.649889	0.580459	0.90928	0.247121	-0.0476224	-0.26696	0.199795	0.0176196	0	0	-0.418158	-0.0870859	-0.162295	0.340278	0.314426	0	0	-0.315461	-0.0346185	-0.277483	-0.130666	-0.229495	0.115009	0.547732	0.996753	0	0	0.0520946	-0.447034	0.173528	0.711578	1.24986	0	0
1.07	2.98181	1.42049	-1.28659	0.651492	0.59227	0.910214	0.246085	-0.041864	-0.272877	0.227308	0.0213175	0	0	-0.403958	-0.104406	-0.178524	0.396194	0.300563	0	0	-0.316463	-0.0226819	-0.276011	-0.129403	-0.231899	0.117398	0.55004	0.996679	0	0	0.050566	-0.439732	0.170461	0.70443	1.26541	0	0
1.08	2.94563	1.41738	-1.25223	0.653151	0.604093	0.911453	0.246067	-0.0367038	-0.275764	0.257457	0.0291529	0	0	-0.385375	-0.121779	-0.193026	0.457273	0.276781	0	0	-0.316933	-0.0111488	-0.273564	-0.128496	-0.234258	0.120898	0.553084	0.994963	0	0	0.0484704	-0.432351	0.168205	0.697382	1.28114	0	0
1.09	2.90762	1.4159	-1.21815	0.655111	0.615876	0.912734	0.246883	-0.0306155	-0.275095	0.28541	0.0383508	0	0	-0.360692	-0.139206	-0.206408	0.522921	0.241557	0	0	-0.315315	-0.000529427	-0.269253	-0.127924	-0.23635	0.125521	0.556643	0.991535	0	0	0.0454125	-0.425697	0.167865	0.69133	1.29582	0	0
1.1	2.86018	1.4182	-1.1769	0.657452	0.627456	0.913697	0.249879	-0.0228053	-0.273312	0.307142	0.0470993	0	0	-0.32654	-0.157803	-0.221128	0.594817	0.193384	0	0	-0.309155	0.00916515	-0.262936	-0.127662	-0.238522	0.13376	0.560788	0.982435	0	0	0.0416334	-0.419727	0.168606	0.685859	1.31574	0	0
1.11	2.76009	1.40849	-1.08508	0.659559	0.637854	0.916528	0.245687	-0.00330322	-0.279622	0.32716	0.0467763	0	0	-0.298458	-0.188537	-0.236601	0.664505	0.133255	0	0	-0.314033	0.0331586	-0.251697	-0.120895	-0.243304	0.148387	0.561735	0.965229	0	0	0.04365	-0.409885	0.168681	0.675813	1.33443	0	0
